# xmcd
#
# Track frame offsets:
# 150
# 16307
# 30772
# 51740
# 66827
# 84095
# 103017
# 118777
# 135962
# 150452
# 167322
# 182270
# 197665
# 212179
# 230111
#
# Disc length: 3294 seconds
#
#
# Revision: 1
# Processed by: cddbd v1.5.1PL2 Copyright (c) Steve Scherf et al.
# Submitted via: FreeRIP 2.945 
#
DISCID=b80cdc0f
DTITLE=Eduardo Costa - No boteco
DYEAR=2005
DGENRE=Country
TTITLE0=Entre ele e eu
TTITLE1=Tô indo embora
TTITLE2=Me esqueça
TTITLE3=Diz pro meu olhar
TTITLE4=Linda demais
TTITLE5=É de madrugada
TTITLE6=As paredes azuis
TTITLE7=Imperfeito
TTITLE8=Você só me faz feliz
TTITLE9=Imã
TTITLE10=Você decide
TTITLE11=Página de amigos
TTITLE12=Nos bares da cidade
TTITLE13=Saudade de nós dois
TTITLE14=Eu e a solidão
EXTD=by pepinho
EXTT0=
EXTT1=
EXTT2=
EXTT3=
EXTT4=
EXTT5=
EXTT6=
EXTT7=
EXTT8=
EXTT9=
EXTT10=
EXTT11=
EXTT12=
EXTT13=
EXTT14=
PLAYORDER=
